STARTFONT 2.1
FONT -Monotype-Rockwell-Bold-I-Normal--18-180-72-72-P-101-iso8859-1
SIZE 18 72 72
FONTBOUNDINGBOX 23 22 -3 -4

STARTPROPERTIES 22
FOUNDRY "Monotype"
FAMILY_NAME "Rockwell"
WEIGHT_NAME "Bold"
SLANT "I"
SETWIDTH_NAME "Normal"
ADD_STYLE_NAME ""
PIXEL_SIZE 18
POINT_SIZE 180
RESOLUTION_X 72
RESOLUTION_Y 72
SPACING "P"
AVERAGE_WIDTH 101
CHARSET_REGISTRY "iso8859"
CHARSET_ENCODING "1"
COPYRIGHT "Copyright (c) 1996 Monotype Typography Ltd."
CAP_HEIGHT 14
X_HEIGHT 10
WEIGHT 10
QUAD_WIDTH 12
DEFAULT_CHAR 32
FONT_DESCENT 4
FONT_ASCENT 18
ENDPROPERTIES

CHARS 191

STARTCHAR space
ENCODING 32
SWIDTH 250 0
DWIDTH 6 0
BBX 0 0 0 0
BITMAP
ENDCHAR

STARTCHAR exclam
ENCODING 33
SWIDTH 333 0
DWIDTH 6 0
BBX 5 13 1 0
BITMAP
38
38
38
38
70
70
70
70
00
00
E0
E0
E0
ENDCHAR

STARTCHAR quotedbl
ENCODING 34
SWIDTH 552 0
DWIDTH 10 0
BBX 7 6 2 7
BITMAP
C6
C6
C6
C6
C6
C6
ENDCHAR

STARTCHAR numbersign
ENCODING 35
SWIDTH 668 0
DWIDTH 13 0
BBX 11 13 1 0
BITMAP
18C0
18C0
18C0
FFE0
FFE0
3180
3180
3180
FFE0
FFE0
6300
6300
6300
ENDCHAR

STARTCHAR dollar
ENCODING 36
SWIDTH 500 0
DWIDTH 10 0
BBX 11 16 0 -2
BITMAP
0200
0F80
1FC0
3AE0
3AE0
3A00
1E00
1E00
0F00
0F80
EB80
EB80
7F00
3E00
1000
1000
ENDCHAR

STARTCHAR percent
ENCODING 37
SWIDTH 927 0
DWIDTH 18 0
BBX 14 13 3 0
BITMAP
380C
7C18
6C30
CC60
D8C0
F980
7338
067C
0C6C
18CC
30D8
60F8
C070
ENDCHAR

STARTCHAR ampersand
ENCODING 38
SWIDTH 740 0
DWIDTH 14 0
BBX 14 13 0 0
BITMAP
0780
0FC0
1CC0
1DC0
1F80
3E7C
777C
E730
E3E0
E1C0
F3E0
7FF8
3E78
ENDCHAR

STARTCHAR quoteright
ENCODING 39
SWIDTH 333 0
DWIDTH 6 0
BBX 4 6 2 7
BITMAP
70
70
70
30
60
C0
ENDCHAR

STARTCHAR parenleft
ENCODING 40
SWIDTH 344 0
DWIDTH 7 0
BBX 8 17 1 -4
BITMAP
03
0E
1C
38
38
70
70
70
E0
E0
E0
E0
E0
60
60
30
10
ENDCHAR

STARTCHAR parenright
ENCODING 41
SWIDTH 344 0
DWIDTH 7 0
BBX 8 17 -2 -4
BITMAP
08
0C
06
06
07
07
07
07
07
0E
0E
0E
1C
1C
38
70
C0
ENDCHAR

STARTCHAR asterisk
ENCODING 42
SWIDTH 563 0
DWIDTH 11 0
BBX 9 9 2 4
BITMAP
0600
0600
CC00
ED80
7F80
1C00
3600
7700
6300
ENDCHAR

STARTCHAR plus
ENCODING 43
SWIDTH 668 0
DWIDTH 13 0
BBX 10 10 2 1
BITMAP
0C00
0C00
0C00
0C00
FFC0
FFC0
0C00
0C00
0C00
0C00
ENDCHAR

STARTCHAR comma
ENCODING 44
SWIDTH 333 0
DWIDTH 6 0
BBX 4 6 -1 -3
BITMAP
70
70
70
30
60
C0
ENDCHAR

STARTCHAR minus
ENCODING 45
SWIDTH 668 0
DWIDTH 13 0
BBX 10 2 2 5
BITMAP
FFC0
FFC0
ENDCHAR

STARTCHAR period
ENCODING 46
SWIDTH 333 0
DWIDTH 6 0
BBX 3 3 0 0
BITMAP
E0
E0
E0
ENDCHAR

STARTCHAR slash
ENCODING 47
SWIDTH 508 0
DWIDTH 10 0
BBX 9 13 1 0
BITMAP
0380
0300
0700
0600
0E00
0C00
1C00
1800
3800
3000
7000
6000
E000
ENDCHAR

STARTCHAR zero
ENCODING 48
SWIDTH 542 0
DWIDTH 10 0
BBX 9 13 0 0
BITMAP
0F00
1F80
3B80
7380
7380
7380
E380
E700
E700
E700
EE00
FC00
7800
ENDCHAR

STARTCHAR one
ENCODING 49
SWIDTH 542 0
DWIDTH 10 0
BBX 7 13 0 0
BITMAP
1E
1E
0E
0E
1C
1C
1C
1C
38
38
38
FC
FC
ENDCHAR

STARTCHAR two
ENCODING 50
SWIDTH 542 0
DWIDTH 10 0
BBX 10 13 0 0
BITMAP
0F80
1FC0
39C0
39C0
01C0
0380
0700
1E00
3800
7380
E380
FF00
FF00
ENDCHAR

STARTCHAR three
ENCODING 51
SWIDTH 542 0
DWIDTH 10 0
BBX 10 13 0 0
BITMAP
0F80
1FC0
39C0
39C0
01C0
0F80
0F00
0380
0380
E380
E700
FF00
7C00
ENDCHAR

STARTCHAR four
ENCODING 52
SWIDTH 542 0
DWIDTH 10 0
BBX 9 13 0 0
BITMAP
0180
0380
0780
0F80
1B80
3700
6700
C700
FF80
FF80
0E00
1F00
1F00
ENDCHAR

STARTCHAR five
ENCODING 53
SWIDTH 542 0
DWIDTH 10 0
BBX 10 13 0 0
BITMAP
1FC0
1FC0
1DC0
3800
3F00
3F80
1B80
0380
0380
E380
E700
FF00
7C00
ENDCHAR

STARTCHAR six
ENCODING 54
SWIDTH 542 0
DWIDTH 10 0
BBX 9 13 0 0
BITMAP
0F00
3F80
3B80
7380
7000
7E00
FF00
E700
E700
E700
EE00
7E00
3C00
ENDCHAR

STARTCHAR seven
ENCODING 55
SWIDTH 542 0
DWIDTH 10 0
BBX 9 13 1 0
BITMAP
7F80
7F80
E700
EE00
0E00
1C00
1C00
3800
3800
7000
7000
F800
F800
ENDCHAR

STARTCHAR eight
ENCODING 56
SWIDTH 542 0
DWIDTH 10 0
BBX 10 13 0 0
BITMAP
0F80
1FC0
39C0
39C0
3B80
1F00
1F00
7F80
7380
E380
E700
FF00
7C00
ENDCHAR

STARTCHAR nine
ENCODING 57
SWIDTH 542 0
DWIDTH 10 0
BBX 9 13 0 0
BITMAP
1E00
3F00
3B80
7380
7380
7380
7F80
3F00
0700
E700
EE00
FE00
7800
ENDCHAR

STARTCHAR colon
ENCODING 58
SWIDTH 333 0
DWIDTH 6 0
BBX 5 9 0 0
BITMAP
38
38
38
00
00
00
E0
E0
E0
ENDCHAR

STARTCHAR semicolon
ENCODING 59
SWIDTH 333 0
DWIDTH 6 0
BBX 6 12 -1 -3
BITMAP
1C
1C
1C
00
00
00
70
70
70
30
60
C0
ENDCHAR

STARTCHAR less
ENCODING 60
SWIDTH 667 0
DWIDTH 13 0
BBX 10 11 1 1
BITMAP
0040
01C0
07C0
1F00
7C00
F000
7C00
1F00
07C0
01C0
0040
ENDCHAR

STARTCHAR equal
ENCODING 61
SWIDTH 667 0
DWIDTH 13 0
BBX 10 6 2 3
BITMAP
FFC0
FFC0
0000
0000
FFC0
FFC0
ENDCHAR

STARTCHAR greater
ENCODING 62
SWIDTH 667 0
DWIDTH 13 0
BBX 10 11 2 1
BITMAP
8000
E000
F800
3E00
0F80
03C0
0F80
3E00
F800
E000
8000
ENDCHAR

STARTCHAR question
ENCODING 63
SWIDTH 542 0
DWIDTH 10 0
BBX 8 13 2 0
BITMAP
7C
FE
C7
07
0F
3E
38
60
60
00
E0
E0
E0
ENDCHAR

STARTCHAR at
ENCODING 64
SWIDTH 979 0
DWIDTH 19 0
BBX 17 18 1 -4
BITMAP
03F000
0C0C00
100200
200100
43B900
47F880
8E7080
8E7080
9C7080
9C7100
9CE100
9CE200
9FE400
4F7800
400080
200300
180C00
07F000
ENDCHAR

STARTCHAR A
ENCODING 65
SWIDTH 646 0
DWIDTH 12 0
BBX 13 13 -1 0
BITMAP
03F8
03F8
01F0
03F0
0370
0770
0E70
0FF0
1FF0
1870
3870
FCF8
FCF8
ENDCHAR

STARTCHAR B
ENCODING 66
SWIDTH 667 0
DWIDTH 13 0
BBX 13 13 -1 0
BITMAP
1FF0
1FF8
0E38
0E38
1C70
1FE0
1FE0
1C70
3870
3870
38E0
FFE0
FF80
ENDCHAR

STARTCHAR C
ENCODING 67
SWIDTH 771 0
DWIDTH 15 0
BBX 14 13 1 0
BITMAP
07EC
1FFC
3C3C
781C
7000
F000
E000
E000
E000
F078
78F0
7FE0
1F80
ENDCHAR

STARTCHAR D
ENCODING 68
SWIDTH 760 0
DWIDTH 14 0
BBX 14 13 -1 0
BITMAP
1FE0
1FF8
0E78
0E3C
1C1C
1C1C
1C1C
1C3C
3838
3878
38F0
FFF0
FFC0
ENDCHAR

STARTCHAR E
ENCODING 69
SWIDTH 635 0
DWIDTH 12 0
BBX 13 13 -1 0
BITMAP
1FF8
1FF8
0E38
0E38
1C00
1F80
1F80
1C00
3800
3870
3870
FFE0
FFE0
ENDCHAR

STARTCHAR F
ENCODING 70
SWIDTH 583 0
DWIDTH 11 0
BBX 13 13 -1 0
BITMAP
1FF8
1FF8
0E38
0E38
1C00
1F80
1F80
1C00
3800
3800
3800
FE00
FE00
ENDCHAR

STARTCHAR G
ENCODING 71
SWIDTH 813 0
DWIDTH 15 0
BBX 13 13 1 0
BITMAP
07D8
1FF8
3C78
7838
7000
F000
E000
E1F8
E1F8
F078
78F0
7FE0
1F80
ENDCHAR

STARTCHAR H
ENCODING 72
SWIDTH 740 0
DWIDTH 14 0
BBX 16 13 -1 0
BITMAP
1FBF
1FBF
0E1C
0E1C
1C38
1FF8
1FF8
1C38
3870
3870
3870
FDF8
FDF8
ENDCHAR

STARTCHAR I
ENCODING 73
SWIDTH 396 0
DWIDTH 8 0
BBX 9 13 0 0
BITMAP
1F80
1F80
0E00
0E00
1E00
1C00
1C00
1C00
3800
3800
3800
FC00
FC00
ENDCHAR

STARTCHAR J
ENCODING 74
SWIDTH 375 0
DWIDTH 7 0
BBX 11 17 -3 -4
BITMAP
07E0
07E0
0380
0380
0700
0700
0700
0700
0E00
0E00
0E00
0E00
1C00
1C00
1C00
F800
F000
ENDCHAR

STARTCHAR K
ENCODING 75
SWIDTH 708 0
DWIDTH 13 0
BBX 15 13 -1 0
BITMAP
1FBE
1FBE
0E38
0E70
1CE0
1DC0
1F80
1F00
3B80
39C0
38E0
FDF8
FDF8
ENDCHAR

STARTCHAR L
ENCODING 76
SWIDTH 604 0
DWIDTH 11 0
BBX 12 13 -1 0
BITMAP
1F80
1F80
0E00
0E00
1C00
1C00
1C00
1C70
3870
38E0
38E0
FFE0
FFE0
ENDCHAR

STARTCHAR M
ENCODING 77
SWIDTH 1021 0
DWIDTH 19 0
BBX 21 13 -1 0
BITMAP
1F01F8
1F03F8
0F83E0
0F87E0
1F8FC0
1D8DC0
1DDDC0
1DD9C0
39FB80
38F380
38F380
FCE7C0
FCE7C0
ENDCHAR

STARTCHAR N
ENCODING 78
SWIDTH 792 0
DWIDTH 15 0
BBX 17 13 -1 0
BITMAP
1F1F80
1F1F80
0F0E00
0F8E00
1D8E00
1DDC00
1DDC00
1CDC00
38FC00
387800
387800
FC3800
FC3800
ENDCHAR

STARTCHAR O
ENCODING 79
SWIDTH 823 0
DWIDTH 16 0
BBX 14 13 1 0
BITMAP
07E0
1FF8
3C78
783C
701C
F01C
E01C
E03C
E038
F078
78F0
7FE0
1F80
ENDCHAR

STARTCHAR P
ENCODING 80
SWIDTH 646 0
DWIDTH 12 0
BBX 13 13 -1 0
BITMAP
1FE0
1FF0
0E78
0E38
1C38
1C78
1FF0
1FC0
3800
3800
3800
FC00
FC00
ENDCHAR

STARTCHAR Q
ENCODING 81
SWIDTH 823 0
DWIDTH 16 0
BBX 14 15 1 -2
BITMAP
07E0
1FF8
3C78
783C
701C
F01C
E01C
E03C
E038
F078
78F0
7FE0
1F80
3FE0
71E0
ENDCHAR

STARTCHAR R
ENCODING 82
SWIDTH 698 0
DWIDTH 13 0
BBX 13 13 -1 0
BITMAP
1FF0
1FF8
0E38
0E38
1C78
1FF0
1FC0
1DC0
39C0
38E0
38E0
FC78
FC78
ENDCHAR

STARTCHAR S
ENCODING 83
SWIDTH 510 0
DWIDTH 10 0
BBX 12 13 -1 0
BITMAP
0770
0FF0
1CE0
1CE0
1E00
0F00
0780
03C0
01C0
71C0
73C0
FF80
EF00
ENDCHAR

STARTCHAR T
ENCODING 84
SWIDTH 688 0
DWIDTH 13 0
BBX 13 13 1 0
BITMAP
7FF8
7FF8
7738
E770
EE70
0E00
0E00
0E00
1C00
1C00
1C00
7E00
7E00
ENDCHAR

STARTCHAR U
ENCODING 85
SWIDTH 708 0
DWIDTH 13 0
BBX 14 13 1 0
BITMAP
7EFC
7EFC
3870
3870
70E0
70E0
70E0
70E0
E1C0
E1C0
F3C0
7F80
3F00
ENDCHAR

STARTCHAR V
ENCODING 86
SWIDTH 646 0
DWIDTH 12 0
BBX 12 13 2 0
BITMAP
FBF0
FBF0
71C0
7380
7380
7700
7600
7E00
7C00
7800
7800
7000
7000
ENDCHAR

STARTCHAR W
ENCODING 87
SWIDTH 896 0
DWIDTH 17 0
BBX 18 13 1 0
BITMAP
FBEFC0
FBEFC0
71C700
73CE00
73CE00
77DC00
77D800
7FF800
7DF000
79E000
79E000
71C000
71C000
ENDCHAR

STARTCHAR X
ENCODING 88
SWIDTH 677 0
DWIDTH 13 0
BBX 15 13 -1 0
BITMAP
3F7E
3F7E
0E38
0770
07E0
03C0
03C0
07C0
0EE0
1CE0
3870
FCFC
FCFC
ENDCHAR

STARTCHAR Y
ENCODING 89
SWIDTH 625 0
DWIDTH 12 0
BBX 14 13 1 0
BITMAP
FCFC
FCFC
3870
38E0
1DC0
1F80
0F00
0E00
1C00
1C00
1C00
7E00
7E00
ENDCHAR

STARTCHAR Z
ENCODING 90
SWIDTH 604 0
DWIDTH 11 0
BBX 11 13 0 0
BITMAP
3FE0
3FE0
71E0
73C0
0780
0700
0E00
1C00
3C00
79C0
F1C0
FF80
FF80
ENDCHAR

STARTCHAR bracketleft
ENCODING 91
SWIDTH 385 0
DWIDTH 7 0
BBX 8 17 0 -4
BITMAP
1F
1F
1C
1C
38
38
38
38
70
70
70
70
70
E0
E0
F8
F8
ENDCHAR

STARTCHAR backslash
ENCODING 92
SWIDTH 508 0
DWIDTH 10 0
BBX 9 13 1 0
BITMAP
E000
6000
7000
3000
3800
1800
1C00
0C00
0E00
0600
0700
0300
0380
ENDCHAR

STARTCHAR bracketright
ENCODING 93
SWIDTH 385 0
DWIDTH 7 0
BBX 8 17 -1 -4
BITMAP
1F
1F
07
07
0E
0E
0E
0E
1C
1C
1C
1C
1C
38
38
F8
F8
ENDCHAR

STARTCHAR asciicircum
ENCODING 94
SWIDTH 583 0
DWIDTH 11 0
BBX 9 8 1 5
BITMAP
1C00
1C00
3E00
3600
7700
6300
E380
C180
ENDCHAR

STARTCHAR underscore
ENCODING 95
SWIDTH 500 0
DWIDTH 10 0
BBX 9 2 -1 -3
BITMAP
FF80
FF80
ENDCHAR

STARTCHAR quoteleft
ENCODING 96
SWIDTH 333 0
DWIDTH 6 0
BBX 4 6 1 8
BITMAP
30
60
C0
E0
E0
E0
ENDCHAR

STARTCHAR a
ENCODING 97
SWIDTH 573 0
DWIDTH 11 0
BBX 9 9 1 0
BITMAP
1F00
3F80
0380
3F80
7F00
E700
E700
FF80
7B80
ENDCHAR

STARTCHAR b
ENCODING 98
SWIDTH 604 0
DWIDTH 11 0
BBX 10 13 0 0
BITMAP
3C00
3C00
1C00
1C00
3B80
3FC0
3DC0
39C0
39C0
7380
7380
FF00
FE00
ENDCHAR

STARTCHAR c
ENCODING 99
SWIDTH 531 0
DWIDTH 10 0
BBX 9 9 1 0
BITMAP
1F80
3F80
7380
E000
E000
E000
E700
7F00
3C00
ENDCHAR

STARTCHAR d
ENCODING 100
SWIDTH 604 0
DWIDTH 11 0
BBX 10 13 1 0
BITMAP
03C0
03C0
01C0
01C0
1F80
3F80
7380
7380
E700
E700
EF00
FF80
7780
ENDCHAR

STARTCHAR e
ENCODING 101
SWIDTH 552 0
DWIDTH 10 0
BBX 8 9 1 0
BITMAP
1E
3F
73
FF
FF
E0
E6
7E
3C
ENDCHAR

STARTCHAR f
ENCODING 102
SWIDTH 333 0
DWIDTH 6 0
BBX 8 13 0 0
BITMAP
0F
1F
1C
38
7C
7C
38
38
70
70
70
F8
F8
ENDCHAR

STARTCHAR g
ENCODING 103
SWIDTH 604 0
DWIDTH 11 0
BBX 11 13 0 -4
BITMAP
0EE0
1FE0
39C0
39C0
71C0
7380
7780
7F80
3B80
0700
E700
FE00
7C00
ENDCHAR

STARTCHAR h
ENCODING 104
SWIDTH 604 0
DWIDTH 11 0
BBX 10 13 0 0
BITMAP
3C00
3C00
1C00
1C00
3B80
3FC0
3DC0
39C0
7380
7380
7380
FBC0
FBC0
ENDCHAR

STARTCHAR i
ENCODING 105
SWIDTH 333 0
DWIDTH 6 0
BBX 6 13 0 0
BITMAP
1C
1C
1C
00
78
78
38
38
70
70
70
F8
F8
ENDCHAR

STARTCHAR j
ENCODING 106
SWIDTH 323 0
DWIDTH 6 0
BBX 8 17 -2 -4
BITMAP
07
07
07
00
1E
1E
0E
0E
1C
1C
1C
1C
38
38
38
F0
E0
ENDCHAR

STARTCHAR k
ENCODING 107
SWIDTH 573 0
DWIDTH 11 0
BBX 11 13 0 0
BITMAP
3C00
3C00
1C00
1C00
39E0
39E0
3B80
3F00
7E00
7700
7380
F9E0
F9E0
ENDCHAR

STARTCHAR l
ENCODING 108
SWIDTH 333 0
DWIDTH 6 0
BBX 6 13 0 0
BITMAP
3C
3C
1C
1C
38
38
38
38
70
70
70
F8
F8
ENDCHAR

STARTCHAR m
ENCODING 109
SWIDTH 969 0
DWIDTH 18 0
BBX 15 9 1 0
BITMAP
7BDC
7FFE
3DEE
39CE
739C
739C
739C
FBDE
FBDE
ENDCHAR

STARTCHAR n
ENCODING 110
SWIDTH 604 0
DWIDTH 11 0
BBX 10 9 0 0
BITMAP
7B80
7FC0
3DC0
39C0
7380
7380
7380
FBC0
FBC0
ENDCHAR

STARTCHAR o
ENCODING 111
SWIDTH 573 0
DWIDTH 11 0
BBX 9 9 1 0
BITMAP
1E00
3F00
7380
E380
E380
E380
E700
7E00
3C00
ENDCHAR

STARTCHAR p
ENCODING 112
SWIDTH 604 0
DWIDTH 11 0
BBX 11 13 -1 -4
BITMAP
3DC0
3FE0
1EE0
1CE0
1CE0
39C0
39C0
3F80
3F00
7000
7000
F800
F800
ENDCHAR

STARTCHAR q
ENCODING 113
SWIDTH 604 0
DWIDTH 11 0
BBX 10 13 1 -4
BITMAP
1DC0
3FC0
7380
7380
E380
E700
EF00
FF00
7700
0E00
0E00
1F00
1F00
ENDCHAR

STARTCHAR r
ENCODING 114
SWIDTH 417 0
DWIDTH 8 0
BBX 8 9 1 0
BITMAP
7B
7F
3C
38
70
70
70
F8
F8
ENDCHAR

STARTCHAR s
ENCODING 115
SWIDTH 490 0
DWIDTH 9 0
BBX 9 9 0 0
BITMAP
3D80
7F80
7380
7800
3E00
0F00
E700
FF00
DE00
ENDCHAR

STARTCHAR t
ENCODING 116
SWIDTH 333 0
DWIDTH 6 0
BBX 6 13 0 0
BITMAP
08
18
38
38
FC
FC
70
70
E0
E0
E0
F8
78
ENDCHAR

STARTCHAR u
ENCODING 117
SWIDTH 604 0
DWIDTH 11 0
BBX 9 9 1 0
BITMAP
F780
F780
7380
7380
E700
E700
EF00
FF80
7780
ENDCHAR

STARTCHAR v
ENCODING 118
SWIDTH 510 0
DWIDTH 10 0
BBX 11 9 0 0
BITMAP
FBE0
FBE0
7380
7300
7700
7600
3C00
3C00
3800
ENDCHAR

STARTCHAR w
ENCODING 119
SWIDTH 760 0
DWIDTH 14 0
BBX 16 9 -1 0
BITMAP
F9DF
F9DF
73CE
73CC
77DC
76D8
3CF0
3CF0
38E0
ENDCHAR

STARTCHAR x
ENCODING 120
SWIDTH 500 0
DWIDTH 10 0
BBX 11 9 -1 0
BITMAP
7DE0
7DE0
1B80
1F00
0E00
1E00
3B00
F7C0
F7C0
ENDCHAR

STARTCHAR y
ENCODING 121
SWIDTH 563 0
DWIDTH 11 0
BBX 12 13 -1 -4
BITMAP
7DF0
7DF0
39C0
3980
3B80
3B00
1E00
1E00
1C00
3800
3800
F000
E000
ENDCHAR

STARTCHAR z
ENCODING 122
SWIDTH 479 0
DWIDTH 9 0
BBX 7 9 1 0
BITMAP
7E
7E
6E
1C
38
70
EC
FC
FC
ENDCHAR

STARTCHAR braceleft
ENCODING 123
SWIDTH 385 0
DWIDTH 7 0
BBX 7 17 0 -4
BITMAP
0E
1E
30
30
30
30
30
60
C0
60
30
30
30
30
30
1E
0E
ENDCHAR

STARTCHAR bar
ENCODING 124
SWIDTH 611 0
DWIDTH 12 0
BBX 2 17 4 -4
BITMAP
C0
C0
C0
C0
C0
C0
C0
C0
C0
C0
C0
C0
C0
C0
C0
C0
C0
ENDCHAR

STARTCHAR braceright
ENCODING 125
SWIDTH 385 0
DWIDTH 7 0
BBX 6 17 1 -4
BITMAP
C0
E0
30
30
30
30
30
18
0C
18
30
30
30
30
30
E0
C0
ENDCHAR

STARTCHAR asciitilde
ENCODING 126
SWIDTH 583 0
DWIDTH 11 0
BBX 10 3 0 5
BITMAP
38C0
7F80
C700
ENDCHAR

STARTCHAR space
ENCODING 160
SWIDTH 250 0
DWIDTH 5 0
BBX 0 0 0 0
BITMAP
ENDCHAR

STARTCHAR exclamdown
ENCODING 161
SWIDTH 333 0
DWIDTH 6 0
BBX 5 13 0 -4
BITMAP
38
38
38
00
00
70
70
70
70
E0
E0
E0
E0
ENDCHAR

STARTCHAR cent
ENCODING 162
SWIDTH 531 0
DWIDTH 10 0
BBX 9 17 0 -4
BITMAP
0100
0100
0200
0200
1F80
3F80
7780
E400
E800
E800
F700
7F00
3C00
2000
2000
4000
4000
ENDCHAR

STARTCHAR sterling
ENCODING 163
SWIDTH 510 0
DWIDTH 10 0
BBX 10 13 0 0
BITMAP
0780
0FC0
1CC0
18C0
1800
1800
7F00
7F00
1800
1800
7980
BF80
EF00
ENDCHAR

STARTCHAR currency
ENCODING 164
SWIDTH 667 0
DWIDTH 13 0
BBX 10 10 2 2
BITMAP
DEC0
FFC0
6180
C0C0
C0C0
C0C0
C0C0
6180
FFC0
DEC0
ENDCHAR

STARTCHAR yen
ENCODING 165
SWIDTH 625 0
DWIDTH 12 0
BBX 14 13 1 0
BITMAP
FCFC
FCFC
3870
FFF0
FFF0
1F80
0F00
FFE0
FFE0
1C00
1C00
7E00
7E00
ENDCHAR

STARTCHAR brokenbar
ENCODING 166
SWIDTH 611 0
DWIDTH 12 0
BBX 2 17 5 -4
BITMAP
C0
C0
C0
C0
C0
C0
C0
00
00
00
C0
C0
C0
C0
C0
C0
C0
ENDCHAR

STARTCHAR section
ENCODING 167
SWIDTH 510 0
DWIDTH 10 0
BBX 10 17 0 -4
BITMAP
0F80
1FC0
38C0
3800
1C00
7E00
E700
C380
E1C0
70C0
39C0
1F80
0E00
0700
C700
FE00
7C00
ENDCHAR

STARTCHAR dieresis
ENCODING 168
SWIDTH 333 0
DWIDTH 6 0
BBX 8 2 1 11
BITMAP
E7
E7
ENDCHAR

STARTCHAR copyright
ENCODING 169
SWIDTH 740 0
DWIDTH 14 0
BBX 14 14 0 0
BITMAP
0FC0
3870
6018
4788
CFCC
9CC4
9804
9804
9CC4
CFCC
4788
6018
3870
0FC0
ENDCHAR

STARTCHAR ordfeminine
ENCODING 170
SWIDTH 375 0
DWIDTH 7 0
BBX 6 5 1 8
BITMAP
78
0C
78
D8
EC
ENDCHAR

STARTCHAR guillemotleft
ENCODING 171
SWIDTH 531 0
DWIDTH 10 0
BBX 12 9 -1 0
BITMAP
0E70
1CE0
39C0
7380
E700
E700
7380
39C0
1CE0
ENDCHAR

STARTCHAR logicalnot
ENCODING 172
SWIDTH 668 0
DWIDTH 13 0
BBX 10 7 2 3
BITMAP
FFC0
FFC0
00C0
00C0
00C0
00C0
00C0
ENDCHAR

STARTCHAR hyphen
ENCODING 173
SWIDTH 344 0
DWIDTH 7 0
BBX 5 2 1 3
BITMAP
F8
F8
ENDCHAR

STARTCHAR registered
ENCODING 174
SWIDTH 740 0
DWIDTH 14 0
BBX 14 14 0 0
BITMAP
0FC0
3870
6018
5F88
DFCC
8CC4
8FC4
8F84
8D84
DDCC
5DC8
6018
3870
0FC0
ENDCHAR

STARTCHAR macron
ENCODING 175
SWIDTH 333 0
DWIDTH 6 0
BBX 6 2 0 11
BITMAP
FC
FC
ENDCHAR

STARTCHAR degree
ENCODING 176
SWIDTH 396 0
DWIDTH 8 0
BBX 6 6 1 7
BITMAP
78
CC
84
84
CC
78
ENDCHAR

STARTCHAR plusminus
ENCODING 177
SWIDTH 668 0
DWIDTH 13 0
BBX 10 13 1 0
BITMAP
0C00
0C00
0C00
0C00
FFC0
FFC0
0C00
0C00
0C00
0C00
0000
FFC0
FFC0
ENDCHAR

STARTCHAR twosuperior
ENCODING 178
SWIDTH 333 0
DWIDTH 6 0
BBX 6 6 1 7
BITMAP
38
6C
18
60
D8
F0
ENDCHAR

STARTCHAR threesuperior
ENCODING 179
SWIDTH 333 0
DWIDTH 6 0
BBX 6 6 2 7
BITMAP
38
0C
38
18
98
70
ENDCHAR

STARTCHAR acute
ENCODING 180
SWIDTH 333 0
DWIDTH 6 0
BBX 5 3 1 10
BITMAP
38
70
C0
ENDCHAR

STARTCHAR mu
ENCODING 181
SWIDTH 615 0
DWIDTH 12 0
BBX 11 13 0 -4
BITMAP
38E0
38E0
38E0
38E0
71C0
71C0
71C0
7FC0
7DC0
E000
E000
E000
E000
ENDCHAR

STARTCHAR paragraph
ENCODING 182
SWIDTH 552 0
DWIDTH 10 0
BBX 11 17 0 -4
BITMAP
3FE0
7FE0
FDC0
FDC0
FDC0
FDC0
7DC0
1DC0
1DC0
1DC0
1DC0
1DC0
1DC0
1DC0
1DC0
1DC0
1DC0
ENDCHAR

STARTCHAR periodcentered
ENCODING 183
SWIDTH 333 0
DWIDTH 6 0
BBX 3 3 2 5
BITMAP
E0
E0
E0
ENDCHAR

STARTCHAR cedilla
ENCODING 184
SWIDTH 333 0
DWIDTH 6 0
BBX 5 4 -1 -4
BITMAP
30
38
18
F0
ENDCHAR

STARTCHAR onesuperior
ENCODING 185
SWIDTH 333 0
DWIDTH 6 0
BBX 4 7 2 6
BITMAP
70
30
30
60
60
60
F0
ENDCHAR

STARTCHAR ordmasculine
ENCODING 186
SWIDTH 375 0
DWIDTH 7 0
BBX 6 7 2 6
BITMAP
38
7C
6C
CC
D8
F8
70
ENDCHAR

STARTCHAR guillemotright
ENCODING 187
SWIDTH 531 0
DWIDTH 10 0
BBX 12 9 -1 0
BITMAP
7380
39C0
1CE0
0E70
0E70
1CE0
39C0
7380
E700
ENDCHAR

STARTCHAR onequarter
ENCODING 188
SWIDTH 927 0
DWIDTH 18 0
BBX 14 13 2 0
BITMAP
700C
3018
3030
6060
60C0
F180
0300
0638
0C70
18B0
31F8
6060
C0F0
ENDCHAR

STARTCHAR onehalf
ENCODING 189
SWIDTH 927 0
DWIDTH 18 0
BBX 14 13 2 0
BITMAP
380C
1818
1830
3060
30C0
7980
0300
0638
0C6C
1818
3060
60D8
C0F0
ENDCHAR

STARTCHAR threequarters
ENCODING 190
SWIDTH 927 0
DWIDTH 18 0
BBX 14 13 2 0
BITMAP
380C
0C18
3830
1860
D8C0
7180
0300
0638
0C70
18B0
31F8
6060
C0F0
ENDCHAR

STARTCHAR questiondown
ENCODING 191
SWIDTH 542 0
DWIDTH 10 0
BBX 8 13 1 -4
BITMAP
07
07
07
00
06
06
1C
7C
F0
E0
E3
7F
3E
ENDCHAR

STARTCHAR Agrave
ENCODING 192
SWIDTH 646 0
DWIDTH 12 0
BBX 13 17 -1 0
BITMAP
0380
01C0
0060
0000
03F8
03F8
01F0
03F0
0370
0770
0E70
0FF0
1FF0
1870
3870
FCF8
FCF8
ENDCHAR

STARTCHAR Aacute
ENCODING 193
SWIDTH 646 0
DWIDTH 12 0
BBX 13 17 -1 0
BITMAP
0038
0070
00C0
0000
03F8
03F8
01F0
03F0
0370
0770
0E70
0FF0
1FF0
1870
3870
FCF8
FCF8
ENDCHAR

STARTCHAR Acircumflex
ENCODING 194
SWIDTH 646 0
DWIDTH 12 0
BBX 13 17 -1 0
BITMAP
0030
0078
00D8
0000
03F8
03F8
01F0
03F0
0370
0770
0E70
0FF0
1FF0
1870
3870
FCF8
FCF8
ENDCHAR

STARTCHAR Atilde
ENCODING 195
SWIDTH 646 0
DWIDTH 12 0
BBX 13 17 -1 0
BITMAP
00C8
01F8
0130
0000
03F8
03F8
01F0
03F0
0370
0770
0E70
0FF0
1FF0
1870
3870
FCF8
FCF8
ENDCHAR

STARTCHAR Adieresis
ENCODING 196
SWIDTH 646 0
DWIDTH 12 0
BBX 13 16 -1 0
BITMAP
00D8
00D8
0000
03F8
03F8
01F0
03F0
0370
0770
0E70
0FF0
1FF0
1870
3870
FCF8
FCF8
ENDCHAR

STARTCHAR Aring
ENCODING 197
SWIDTH 646 0
DWIDTH 12 0
BBX 13 18 -1 0
BITMAP
0060
0090
0090
0060
0000
03F8
03F8
01F0
03F0
0370
0770
0E70
0FF0
1FF0
1870
3870
FCF8
FCF8
ENDCHAR

STARTCHAR AE
ENCODING 198
SWIDTH 927 0
DWIDTH 18 0
BBX 19 13 0 0
BITMAP
07FFE0
07FFE0
03B8E0
0338E0
077000
07FE00
0FFE00
1C7000
1CE000
38E380
38E380
FDFF00
FDFF00
ENDCHAR

STARTCHAR Ccedilla
ENCODING 199
SWIDTH 771 0
DWIDTH 15 0
BBX 14 17 1 -4
BITMAP
07EC
1FFC
3C3C
781C
7000
F000
E000
E000
E000
F078
78F0
7FE0
1F80
0C00
0E00
0600
3C00
ENDCHAR

STARTCHAR Egrave
ENCODING 200
SWIDTH 635 0
DWIDTH 12 0
BBX 13 17 -1 0
BITMAP
0700
0380
00C0
0000
1FF8
1FF8
0E38
0E38
1C00
1F80
1F80
1C00
3800
3870
3870
FFE0
FFE0
ENDCHAR

STARTCHAR Eacute
ENCODING 201
SWIDTH 635 0
DWIDTH 12 0
BBX 13 17 -1 0
BITMAP
00E0
01C0
0300
0000
1FF8
1FF8
0E38
0E38
1C00
1F80
1F80
1C00
3800
3870
3870
FFE0
FFE0
ENDCHAR

STARTCHAR Ecircumflex
ENCODING 202
SWIDTH 635 0
DWIDTH 12 0
BBX 13 17 -1 0
BITMAP
0060
00F0
01B0
0000
1FF8
1FF8
0E38
0E38
1C00
1F80
1F80
1C00
3800
3870
3870
FFE0
FFE0
ENDCHAR

STARTCHAR Edieresis
ENCODING 203
SWIDTH 635 0
DWIDTH 12 0
BBX 13 16 -1 0
BITMAP
0330
0330
0000
1FF8
1FF8
0E38
0E38
1C00
1F80
1F80
1C00
3800
3870
3870
FFE0
FFE0
ENDCHAR

STARTCHAR Igrave
ENCODING 204
SWIDTH 396 0
DWIDTH 8 0
BBX 9 17 0 0
BITMAP
1C00
0E00
0300
0000
1F80
1F80
0E00
0E00
1E00
1C00
1C00
1C00
3800
3800
3800
FC00
FC00
ENDCHAR

STARTCHAR Iacute
ENCODING 205
SWIDTH 396 0
DWIDTH 8 0
BBX 10 17 0 0
BITMAP
01C0
0380
0600
0000
1F80
1F80
0E00
0E00
1E00
1C00
1C00
1C00
3800
3800
3800
FC00
FC00
ENDCHAR

STARTCHAR Icircumflex
ENCODING 206
SWIDTH 396 0
DWIDTH 8 0
BBX 9 17 0 0
BITMAP
0300
0780
0D80
0000
1F80
1F80
0E00
0E00
1E00
1C00
1C00
1C00
3800
3800
3800
FC00
FC00
ENDCHAR

STARTCHAR Idieresis
ENCODING 207
SWIDTH 396 0
DWIDTH 8 0
BBX 9 16 0 0
BITMAP
0D80
0D80
0000
1F80
1F80
0E00
0E00
1E00
1C00
1C00
1C00
3800
3800
3800
FC00
FC00
ENDCHAR

STARTCHAR Eth
ENCODING 208
SWIDTH 760 0
DWIDTH 14 0
BBX 14 13 -1 0
BITMAP
1FE0
1FF8
0E78
0E3C
1C1C
7F1C
7F1C
1C3C
3838
3878
38F0
FFF0
FFC0
ENDCHAR

STARTCHAR Ntilde
ENCODING 209
SWIDTH 792 0
DWIDTH 15 0
BBX 17 17 -1 0
BITMAP
006400
00FC00
009800
000000
1F1F80
1F1F80
0F0E00
0F8E00
1D8E00
1DDC00
1DDC00
1CDC00
38FC00
387800
387800
FC3800
FC3800
ENDCHAR

STARTCHAR Ograve
ENCODING 210
SWIDTH 823 0
DWIDTH 16 0
BBX 14 17 1 0
BITMAP
0700
0380
00C0
0000
07E0
1FF8
3C78
783C
701C
F01C
E01C
E03C
E038
F078
78F0
7FE0
1F80
ENDCHAR

STARTCHAR Oacute
ENCODING 211
SWIDTH 823 0
DWIDTH 16 0
BBX 14 17 1 0
BITMAP
0070
00E0
0180
0000
07E0
1FF8
3C78
783C
701C
F01C
E01C
E03C
E038
F078
78F0
7FE0
1F80
ENDCHAR

STARTCHAR Ocircumflex
ENCODING 212
SWIDTH 823 0
DWIDTH 16 0
BBX 14 17 1 0
BITMAP
00C0
01E0
0360
0000
07E0
1FF8
3C78
783C
701C
F01C
E01C
E03C
E038
F078
78F0
7FE0
1F80
ENDCHAR

STARTCHAR Otilde
ENCODING 213
SWIDTH 823 0
DWIDTH 16 0
BBX 14 17 1 0
BITMAP
0190
03F0
0260
0000
07E0
1FF8
3C78
783C
701C
F01C
E01C
E03C
E038
F078
78F0
7FE0
1F80
ENDCHAR

STARTCHAR Odieresis
ENCODING 214
SWIDTH 823 0
DWIDTH 16 0
BBX 14 16 1 0
BITMAP
0660
0660
0000
07E0
1FF8
3C78
783C
701C
F01C
E01C
E03C
E038
F078
78F0
7FE0
1F80
ENDCHAR

STARTCHAR multiply
ENCODING 215
SWIDTH 667 0
DWIDTH 13 0
BBX 11 9 1 2
BITMAP
E0E0
71C0
3B80
1F00
0E00
1F00
3B80
71C0
E0E0
ENDCHAR

STARTCHAR Oslash
ENCODING 216
SWIDTH 823 0
DWIDTH 16 0
BBX 15 13 0 0
BITMAP
03F6
0FFC
1E1C
3C3E
386E
78CE
718E
731E
761C
7C3C
3878
7FF0
CFC0
ENDCHAR

STARTCHAR Ugrave
ENCODING 217
SWIDTH 708 0
DWIDTH 13 0
BBX 14 17 1 0
BITMAP
0E00
0700
0180
0000
7EFC
7EFC
3870
3870
70E0
70E0
70E0
70E0
E1C0
E1C0
F3C0
7F80
3F00
ENDCHAR

STARTCHAR Uacute
ENCODING 218
SWIDTH 708 0
DWIDTH 13 0
BBX 14 17 1 0
BITMAP
00E0
01C0
0300
0000
7EFC
7EFC
3870
3870
70E0
70E0
70E0
70E0
E1C0
E1C0
F3C0
7F80
3F00
ENDCHAR

STARTCHAR Ucircumflex
ENCODING 219
SWIDTH 708 0
DWIDTH 13 0
BBX 14 17 1 0
BITMAP
0180
03C0
06C0
0000
7EFC
7EFC
3870
3870
70E0
70E0
70E0
70E0
E1C0
E1C0
F3C0
7F80
3F00
ENDCHAR

STARTCHAR Udieresis
ENCODING 220
SWIDTH 708 0
DWIDTH 13 0
BBX 14 16 1 0
BITMAP
0CC0
0CC0
0000
7EFC
7EFC
3870
3870
70E0
70E0
70E0
70E0
E1C0
E1C0
F3C0
7F80
3F00
ENDCHAR

STARTCHAR Yacute
ENCODING 221
SWIDTH 625 0
DWIDTH 12 0
BBX 14 17 1 0
BITMAP
01C0
0380
0600
0000
FCFC
FCFC
3870
38E0
1DC0
1F80
0F00
0E00
1C00
1C00
1C00
7E00
7E00
ENDCHAR

STARTCHAR Thorn
ENCODING 222
SWIDTH 646 0
DWIDTH 12 0
BBX 12 13 -1 0
BITMAP
1F00
1F00
0E00
0FE0
1FF0
1C70
1C70
1C70
3FE0
3FC0
3800
FC00
FC00
ENDCHAR

STARTCHAR germandbls
ENCODING 223
SWIDTH 615 0
DWIDTH 12 0
BBX 12 13 0 0
BITMAP
07E0
0FF0
0E70
1C70
1CE0
3BC0
3BC0
38E0
38E0
70E0
71E0
FBC0
FB80
ENDCHAR

STARTCHAR agrave
ENCODING 224
SWIDTH 573 0
DWIDTH 11 0
BBX 9 13 1 0
BITMAP
1C00
0E00
0300
0000
1F00
3F80
0380
3F80
7F00
E700
E700
FF80
7B80
ENDCHAR

STARTCHAR aacute
ENCODING 225
SWIDTH 573 0
DWIDTH 11 0
BBX 9 13 1 0
BITMAP
0380
0700
0C00
0000
1F00
3F80
0380
3F80
7F00
E700
E700
FF80
7B80
ENDCHAR

STARTCHAR acircumflex
ENCODING 226
SWIDTH 573 0
DWIDTH 11 0
BBX 9 13 1 0
BITMAP
0300
0780
0D80
0000
1F00
3F80
0380
3F80
7F00
E700
E700
FF80
7B80
ENDCHAR

STARTCHAR atilde
ENCODING 227
SWIDTH 573 0
DWIDTH 11 0
BBX 9 13 1 0
BITMAP
0C80
1F80
1300
0000
1F00
3F80
0380
3F80
7F00
E700
E700
FF80
7B80
ENDCHAR

STARTCHAR adieresis
ENCODING 228
SWIDTH 573 0
DWIDTH 11 0
BBX 9 12 1 0
BITMAP
0D80
0D80
0000
1F00
3F80
0380
3F80
7F00
E700
E700
FF80
7B80
ENDCHAR

STARTCHAR aring
ENCODING 229
SWIDTH 573 0
DWIDTH 11 0
BBX 9 14 1 0
BITMAP
0600
0900
0900
0600
0000
1F00
3F80
0380
3F80
7F00
E700
E700
FF80
7B80
ENDCHAR

STARTCHAR ae
ENCODING 230
SWIDTH 844 0
DWIDTH 16 0
BBX 15 9 1 0
BITMAP
1F7C
3FFE
01C6
3FFE
7FFE
E380
E78C
FFFC
78F8
ENDCHAR

STARTCHAR ccedilla
ENCODING 231
SWIDTH 531 0
DWIDTH 10 0
BBX 9 13 0 -4
BITMAP
1F80
3F80
7380
E000
E000
E000
E700
7F00
3C00
1800
1C00
0C00
3800
ENDCHAR

STARTCHAR egrave
ENCODING 232
SWIDTH 552 0
DWIDTH 10 0
BBX 8 13 1 0
BITMAP
38
1C
06
00
1E
3F
73
FF
FF
E0
E6
7E
3C
ENDCHAR

STARTCHAR eacute
ENCODING 233
SWIDTH 552 0
DWIDTH 10 0
BBX 9 13 1 0
BITMAP
0380
0700
0C00
0000
1E00
3F00
7300
FF00
FF00
E000
E600
7E00
3C00
ENDCHAR

STARTCHAR ecircumflex
ENCODING 234
SWIDTH 552 0
DWIDTH 10 0
BBX 8 13 1 0
BITMAP
06
0F
1B
00
1E
3F
73
FF
FF
E0
E6
7E
3C
ENDCHAR

STARTCHAR edieresis
ENCODING 235
SWIDTH 552 0
DWIDTH 10 0
BBX 8 12 1 0
BITMAP
1B
1B
00
1E
3F
73
FF
FF
E0
E6
7E
3C
ENDCHAR

STARTCHAR igrave
ENCODING 236
SWIDTH 333 0
DWIDTH 6 0
BBX 6 13 0 0
BITMAP
70
38
0C
00
78
78
38
38
70
70
70
F8
F8
ENDCHAR

STARTCHAR iacute
ENCODING 237
SWIDTH 333 0
DWIDTH 6 0
BBX 7 13 0 0
BITMAP
0E
1C
30
00
78
78
38
38
70
70
70
F8
F8
ENDCHAR

STARTCHAR icircumflex
ENCODING 238
SWIDTH 333 0
DWIDTH 6 0
BBX 6 13 0 0
BITMAP
18
3C
6C
00
78
78
38
38
70
70
70
F8
F8
ENDCHAR

STARTCHAR idieresis
ENCODING 239
SWIDTH 333 0
DWIDTH 6 0
BBX 6 12 0 0
BITMAP
6C
6C
00
78
78
38
38
70
70
70
F8
F8
ENDCHAR

STARTCHAR eth
ENCODING 240
SWIDTH 635 0
DWIDTH 12 0
BBX 9 13 1 0
BITMAP
1D80
0600
3F00
0300
1F80
3F80
7380
E380
E380
E380
E700
7E00
3C00
ENDCHAR

STARTCHAR ntilde
ENCODING 241
SWIDTH 604 0
DWIDTH 11 0
BBX 10 13 0 0
BITMAP
0C80
1F80
1300
0000
7B80
7FC0
3DC0
39C0
7380
7380
7380
FBC0
FBC0
ENDCHAR

STARTCHAR ograve
ENCODING 242
SWIDTH 573 0
DWIDTH 11 0
BBX 9 13 1 0
BITMAP
3800
1C00
0600
0000
1E00
3F00
7380
E380
E380
E380
E700
7E00
3C00
ENDCHAR

STARTCHAR oacute
ENCODING 243
SWIDTH 573 0
DWIDTH 11 0
BBX 9 13 1 0
BITMAP
0380
0700
0C00
0000
1E00
3F00
7380
E380
E380
E380
E700
7E00
3C00
ENDCHAR

STARTCHAR ocircumflex
ENCODING 244
SWIDTH 573 0
DWIDTH 11 0
BBX 9 13 1 0
BITMAP
0600
0F00
1B00
0000
1E00
3F00
7380
E380
E380
E380
E700
7E00
3C00
ENDCHAR

STARTCHAR otilde
ENCODING 245
SWIDTH 573 0
DWIDTH 11 0
BBX 9 13 1 0
BITMAP
0C80
1F80
1300
0000
1E00
3F00
7380
E380
E380
E380
E700
7E00
3C00
ENDCHAR

STARTCHAR odieresis
ENCODING 246
SWIDTH 573 0
DWIDTH 11 0
BBX 9 12 1 0
BITMAP
1B00
1B00
0000
1E00
3F00
7380
E380
E380
E380
E700
7E00
3C00
ENDCHAR

STARTCHAR divide
ENCODING 247
SWIDTH 668 0
DWIDTH 13 0
BBX 11 12 1 0
BITMAP
0E00
0E00
0E00
0000
0000
FFE0
FFE0
0000
0000
0E00
0E00
0E00
ENDCHAR

STARTCHAR oslash
ENCODING 248
SWIDTH 573 0
DWIDTH 11 0
BBX 11 11 0 -1
BITMAP
0020
0F40
1F80
39C0
73C0
75C0
79C0
7380
3F00
5E00
8000
ENDCHAR

STARTCHAR ugrave
ENCODING 249
SWIDTH 604 0
DWIDTH 11 0
BBX 9 13 1 0
BITMAP
3800
1C00
0600
0000
F780
F780
7380
7380
E700
E700
EF00
FF80
7780
ENDCHAR

STARTCHAR uacute
ENCODING 250
SWIDTH 604 0
DWIDTH 11 0
BBX 9 13 1 0
BITMAP
0700
0E00
1800
0000
F780
F780
7380
7380
E700
E700
EF00
FF80
7780
ENDCHAR

STARTCHAR ucircumflex
ENCODING 251
SWIDTH 604 0
DWIDTH 11 0
BBX 9 13 1 0
BITMAP
0600
0F00
1B00
0000
F780
F780
7380
7380
E700
E700
EF00
FF80
7780
ENDCHAR

STARTCHAR udieresis
ENCODING 252
SWIDTH 604 0
DWIDTH 11 0
BBX 9 12 1 0
BITMAP
1B00
1B00
0000
F780
F780
7380
7380
E700
E700
EF00
FF80
7780
ENDCHAR

STARTCHAR yacute
ENCODING 253
SWIDTH 563 0
DWIDTH 11 0
BBX 12 17 -1 -4
BITMAP
0380
0700
0C00
0000
7DF0
7DF0
39C0
3980
3B80
3B00
1E00
1E00
1C00
3800
3800
F000
E000
ENDCHAR

STARTCHAR thorn
ENCODING 254
SWIDTH 604 0
DWIDTH 11 0
BBX 11 17 -1 -4
BITMAP
1E00
1E00
0E00
0E00
0FC0
1FE0
1EE0
1CE0
1CE0
38C0
39C0
3F80
3F00
7000
7000
F800
F800
ENDCHAR

STARTCHAR ydieresis
ENCODING 255
SWIDTH 563 0
DWIDTH 11 0
BBX 12 16 -1 -4
BITMAP
0CC0
0CC0
0000
7DF0
7DF0
39C0
3980
3B80
3B00
1E00
1E00
1C00
3800
3800
F000
E000
ENDCHAR
ENDFONT
